<mxfile host="app.diagrams.net" modified="2022-04-11T19:57:07.827Z" agent="5.0 (X11; Linux x86_64) AppleWebKit/537.36 (KHTML, like Gecko) Chrome/100.0.4896.60 Safari/537.36" etag="UnJcOGzCPp3NGsBrf8PJ" version="17.4.2" type="github">
  <diagram id="mYQ9v2PQexZrmUGCqody" name="Page-1">
    <mxGraphModel dx="800" dy="925" grid="1" gridSize="10" guides="1" tooltips="1" connect="1" arrows="1" fold="1" page="1" pageScale="1" pageWidth="1169" pageHeight="827" math="0" shadow="0">
      <root>
        <mxCell id="0" />
        <mxCell id="1" parent="0" />
        <mxCell id="XWce2W0FbkmNpmK_RSVY-16" value="Hinge" style="ellipse;whiteSpace=wrap;html=1;" vertex="1" parent="1">
          <mxGeometry x="245" y="190" width="75" height="30" as="geometry" />
        </mxCell>
        <mxCell id="-A-Ao3ZN_OpfrK-LmKao-7" value="Arm" style="ellipse;whiteSpace=wrap;html=1;" parent="1" vertex="1">
          <mxGeometry x="50" y="539" width="75" height="50" as="geometry" />
        </mxCell>
        <mxCell id="-A-Ao3ZN_OpfrK-LmKao-6" value="USW" style="ellipse;whiteSpace=wrap;html=1;" parent="1" vertex="1">
          <mxGeometry x="62.5" y="485" width="75" height="50" as="geometry" />
        </mxCell>
        <mxCell id="TxHa8NDeIoHJXVEvTn0Z-2" value="" style="endArrow=none;html=1;rounded=0;" parent="1" edge="1">
          <mxGeometry width="50" height="50" relative="1" as="geometry">
            <mxPoint y="80" as="sourcePoint" />
            <mxPoint x="1160" y="80" as="targetPoint" />
          </mxGeometry>
        </mxCell>
        <mxCell id="TxHa8NDeIoHJXVEvTn0Z-3" value="Concepts of ROS" style="text;html=1;strokeColor=none;fillColor=none;align=left;verticalAlign=top;whiteSpace=wrap;rounded=0;fontSize=28;" parent="1" vertex="1">
          <mxGeometry x="40" y="40" width="400" height="30" as="geometry" />
        </mxCell>
        <mxCell id="MWNjnfaUYYlCfx7c9M3N-1" value="&lt;b&gt;&lt;font style=&quot;font-size: 15px&quot;&gt;ROS&lt;/font&gt;&lt;/b&gt;" style="ellipse;whiteSpace=wrap;html=1;aspect=fixed;" parent="1" vertex="1">
          <mxGeometry x="482" y="360" width="200" height="200" as="geometry" />
        </mxCell>
        <mxCell id="MWNjnfaUYYlCfx7c9M3N-2" value="" style="endArrow=none;dashed=1;html=1;dashPattern=1 3;strokeWidth=2;rounded=0;entryX=0;entryY=0;entryDx=0;entryDy=0;" parent="1" target="MWNjnfaUYYlCfx7c9M3N-1" edge="1">
          <mxGeometry width="50" height="50" relative="1" as="geometry">
            <mxPoint x="240" y="120" as="sourcePoint" />
            <mxPoint x="560" y="460" as="targetPoint" />
          </mxGeometry>
        </mxCell>
        <mxCell id="MWNjnfaUYYlCfx7c9M3N-3" value="" style="endArrow=none;dashed=1;html=1;dashPattern=1 3;strokeWidth=2;rounded=0;entryX=1;entryY=0;entryDx=0;entryDy=0;" parent="1" target="MWNjnfaUYYlCfx7c9M3N-1" edge="1">
          <mxGeometry width="50" height="50" relative="1" as="geometry">
            <mxPoint x="920" y="120" as="sourcePoint" />
            <mxPoint x="521.2893218813454" y="399.28932188134536" as="targetPoint" />
          </mxGeometry>
        </mxCell>
        <mxCell id="MWNjnfaUYYlCfx7c9M3N-4" value="" style="endArrow=none;dashed=1;html=1;dashPattern=1 3;strokeWidth=2;rounded=0;entryX=1;entryY=1;entryDx=0;entryDy=0;" parent="1" target="MWNjnfaUYYlCfx7c9M3N-1" edge="1">
          <mxGeometry width="50" height="50" relative="1" as="geometry">
            <mxPoint x="920" y="800" as="sourcePoint" />
            <mxPoint x="662.7106781186549" y="399.28932188134513" as="targetPoint" />
          </mxGeometry>
        </mxCell>
        <mxCell id="MWNjnfaUYYlCfx7c9M3N-5" value="" style="endArrow=none;dashed=1;html=1;dashPattern=1 3;strokeWidth=2;rounded=0;entryX=0;entryY=1;entryDx=0;entryDy=0;" parent="1" target="MWNjnfaUYYlCfx7c9M3N-1" edge="1">
          <mxGeometry width="50" height="50" relative="1" as="geometry">
            <mxPoint x="240" y="800" as="sourcePoint" />
            <mxPoint x="662.7106781186549" y="540.7106781186549" as="targetPoint" />
          </mxGeometry>
        </mxCell>
        <mxCell id="MWNjnfaUYYlCfx7c9M3N-6" value="Core" style="text;html=1;strokeColor=none;fillColor=none;align=center;verticalAlign=middle;whiteSpace=wrap;rounded=0;" parent="1" vertex="1">
          <mxGeometry x="552" y="365" width="60" height="30" as="geometry" />
        </mxCell>
        <mxCell id="MWNjnfaUYYlCfx7c9M3N-7" value="Sensors&lt;br&gt;Actuators" style="text;html=1;strokeColor=none;fillColor=none;align=center;verticalAlign=middle;whiteSpace=wrap;rounded=0;" parent="1" vertex="1">
          <mxGeometry x="622" y="445" width="60" height="30" as="geometry" />
        </mxCell>
        <mxCell id="MWNjnfaUYYlCfx7c9M3N-8" value="Simulation" style="text;html=1;strokeColor=none;fillColor=none;align=center;verticalAlign=middle;whiteSpace=wrap;rounded=0;" parent="1" vertex="1">
          <mxGeometry x="487" y="415" width="60" height="30" as="geometry" />
        </mxCell>
        <mxCell id="MWNjnfaUYYlCfx7c9M3N-9" value="Control" style="text;html=1;strokeColor=none;fillColor=none;align=center;verticalAlign=middle;whiteSpace=wrap;rounded=0;" parent="1" vertex="1">
          <mxGeometry x="552" y="530" width="60" height="30" as="geometry" />
        </mxCell>
        <mxCell id="MWNjnfaUYYlCfx7c9M3N-11" value="Bag" style="ellipse;whiteSpace=wrap;html=1;" parent="1" vertex="1">
          <mxGeometry x="542" y="280" width="75" height="50" as="geometry" />
        </mxCell>
        <mxCell id="MWNjnfaUYYlCfx7c9M3N-14" value="Topic" style="ellipse;whiteSpace=wrap;html=1;" parent="1" vertex="1">
          <mxGeometry x="474.5" y="310" width="75" height="50" as="geometry" />
        </mxCell>
        <mxCell id="MWNjnfaUYYlCfx7c9M3N-15" value="Node" style="ellipse;whiteSpace=wrap;html=1;" parent="1" vertex="1">
          <mxGeometry x="607" y="310" width="75" height="50" as="geometry" />
        </mxCell>
        <mxCell id="MWNjnfaUYYlCfx7c9M3N-16" value="Service" style="ellipse;whiteSpace=wrap;html=1;" parent="1" vertex="1">
          <mxGeometry x="614" y="256" width="75" height="50" as="geometry" />
        </mxCell>
        <mxCell id="MWNjnfaUYYlCfx7c9M3N-17" value="Launch" style="ellipse;whiteSpace=wrap;html=1;" parent="1" vertex="1">
          <mxGeometry x="470" y="256" width="75" height="50" as="geometry" />
        </mxCell>
        <mxCell id="MWNjnfaUYYlCfx7c9M3N-18" value="IMU" style="ellipse;whiteSpace=wrap;html=1;" parent="1" vertex="1">
          <mxGeometry x="695" y="345" width="75" height="50" as="geometry" />
        </mxCell>
        <mxCell id="MWNjnfaUYYlCfx7c9M3N-19" value="GPS" style="ellipse;whiteSpace=wrap;html=1;" parent="1" vertex="1">
          <mxGeometry x="730" y="306" width="75" height="50" as="geometry" />
        </mxCell>
        <mxCell id="MWNjnfaUYYlCfx7c9M3N-20" value="Camera" style="ellipse;whiteSpace=wrap;html=1;" parent="1" vertex="1">
          <mxGeometry x="700" y="468" width="75" height="50" as="geometry" />
        </mxCell>
        <mxCell id="MWNjnfaUYYlCfx7c9M3N-21" value="LiDAR" style="ellipse;whiteSpace=wrap;html=1;" parent="1" vertex="1">
          <mxGeometry x="689" y="528" width="75" height="50" as="geometry" />
        </mxCell>
        <mxCell id="MWNjnfaUYYlCfx7c9M3N-22" value="JointState" style="ellipse;whiteSpace=wrap;html=1;" parent="1" vertex="1">
          <mxGeometry x="407" y="650" width="75" height="50" as="geometry" />
        </mxCell>
        <mxCell id="MWNjnfaUYYlCfx7c9M3N-23" value="PCL" style="ellipse;whiteSpace=wrap;html=1;" parent="1" vertex="1">
          <mxGeometry x="735" y="560" width="75" height="50" as="geometry" />
        </mxCell>
        <mxCell id="MWNjnfaUYYlCfx7c9M3N-24" value="Gazebo" style="ellipse;whiteSpace=wrap;html=1;" parent="1" vertex="1">
          <mxGeometry x="430" y="363.5" width="75" height="50" as="geometry" />
        </mxCell>
        <mxCell id="MWNjnfaUYYlCfx7c9M3N-25" value="Packages" style="ellipse;whiteSpace=wrap;html=1;" parent="1" vertex="1">
          <mxGeometry x="399.5" y="230" width="75" height="50" as="geometry" />
        </mxCell>
        <mxCell id="MWNjnfaUYYlCfx7c9M3N-26" value="COLCON CATKIN" style="ellipse;whiteSpace=wrap;html=1;" parent="1" vertex="1">
          <mxGeometry x="470" y="202" width="75" height="50" as="geometry" />
        </mxCell>
        <mxCell id="MWNjnfaUYYlCfx7c9M3N-27" value="RVIZ" style="ellipse;whiteSpace=wrap;html=1;" parent="1" vertex="1">
          <mxGeometry x="740" y="190" width="75" height="50" as="geometry" />
        </mxCell>
        <mxCell id="MWNjnfaUYYlCfx7c9M3N-28" value="RQT" style="ellipse;whiteSpace=wrap;html=1;" parent="1" vertex="1">
          <mxGeometry x="685" y="230" width="75" height="50" as="geometry" />
        </mxCell>
        <mxCell id="MWNjnfaUYYlCfx7c9M3N-29" value="Moveit" style="ellipse;whiteSpace=wrap;html=1;" parent="1" vertex="1">
          <mxGeometry x="490" y="560" width="75" height="50" as="geometry" />
        </mxCell>
        <mxCell id="MWNjnfaUYYlCfx7c9M3N-30" value="Parameters" style="ellipse;whiteSpace=wrap;html=1;" parent="1" vertex="1">
          <mxGeometry x="542" y="228" width="75" height="50" as="geometry" />
        </mxCell>
        <mxCell id="MWNjnfaUYYlCfx7c9M3N-31" value="Messages" style="ellipse;whiteSpace=wrap;html=1;" parent="1" vertex="1">
          <mxGeometry x="545" y="170" width="75" height="50" as="geometry" />
        </mxCell>
        <mxCell id="MWNjnfaUYYlCfx7c9M3N-32" value="ROSCD&lt;br&gt;ROSWTF" style="ellipse;whiteSpace=wrap;html=1;" parent="1" vertex="1">
          <mxGeometry x="614" y="204" width="75" height="50" as="geometry" />
        </mxCell>
        <mxCell id="MWNjnfaUYYlCfx7c9M3N-33" value="URDF&lt;br&gt;SDF" style="ellipse;whiteSpace=wrap;html=1;" parent="1" vertex="1">
          <mxGeometry x="140" y="313.5" width="75" height="50" as="geometry" />
        </mxCell>
        <mxCell id="MWNjnfaUYYlCfx7c9M3N-34" value="OpenCV" style="ellipse;whiteSpace=wrap;html=1;" parent="1" vertex="1">
          <mxGeometry x="760" y="489" width="75" height="50" as="geometry" />
        </mxCell>
        <mxCell id="MWNjnfaUYYlCfx7c9M3N-35" value="Navigation" style="ellipse;whiteSpace=wrap;html=1;" parent="1" vertex="1">
          <mxGeometry x="595" y="560" width="75" height="50" as="geometry" />
        </mxCell>
        <mxCell id="MWNjnfaUYYlCfx7c9M3N-36" value="TF" style="ellipse;whiteSpace=wrap;html=1;" parent="1" vertex="1">
          <mxGeometry x="395" y="178" width="75" height="50" as="geometry" />
        </mxCell>
        <mxCell id="MWNjnfaUYYlCfx7c9M3N-37" value="Multiple Systems" style="ellipse;whiteSpace=wrap;html=1;" parent="1" vertex="1">
          <mxGeometry x="670" y="163" width="75" height="50" as="geometry" />
        </mxCell>
        <mxCell id="MWNjnfaUYYlCfx7c9M3N-38" value="CloudSim" style="ellipse;whiteSpace=wrap;html=1;" parent="1" vertex="1">
          <mxGeometry x="165" y="100" width="75" height="50" as="geometry" />
        </mxCell>
        <mxCell id="MWNjnfaUYYlCfx7c9M3N-39" value="Physics&lt;br&gt;Engines" style="ellipse;whiteSpace=wrap;html=1;" parent="1" vertex="1">
          <mxGeometry x="90" y="220" width="75" height="50" as="geometry" />
        </mxCell>
        <mxCell id="MWNjnfaUYYlCfx7c9M3N-40" value="Nodelets" style="ellipse;whiteSpace=wrap;html=1;" parent="1" vertex="1">
          <mxGeometry x="470" y="150" width="75" height="50" as="geometry" />
        </mxCell>
        <mxCell id="MWNjnfaUYYlCfx7c9M3N-41" value="Path Planning" style="ellipse;whiteSpace=wrap;html=1;" parent="1" vertex="1">
          <mxGeometry x="650" y="600" width="75" height="50" as="geometry" />
        </mxCell>
        <mxCell id="MWNjnfaUYYlCfx7c9M3N-42" value="Creating a map" style="ellipse;whiteSpace=wrap;html=1;" parent="1" vertex="1">
          <mxGeometry x="700" y="650" width="75" height="50" as="geometry" />
        </mxCell>
        <mxCell id="MWNjnfaUYYlCfx7c9M3N-43" value="MoveBase" style="ellipse;whiteSpace=wrap;html=1;" parent="1" vertex="1">
          <mxGeometry x="547" y="610" width="75" height="50" as="geometry" />
        </mxCell>
        <mxCell id="MWNjnfaUYYlCfx7c9M3N-44" value="Sensor Fusion" style="ellipse;whiteSpace=wrap;html=1;" parent="1" vertex="1">
          <mxGeometry x="800" y="310" width="75" height="50" as="geometry" />
        </mxCell>
        <mxCell id="MWNjnfaUYYlCfx7c9M3N-45" value="ODOM" style="ellipse;whiteSpace=wrap;html=1;" parent="1" vertex="1">
          <mxGeometry x="764" y="345" width="75" height="50" as="geometry" />
        </mxCell>
        <mxCell id="MWNjnfaUYYlCfx7c9M3N-46" value="Joystick" style="ellipse;whiteSpace=wrap;html=1;" parent="1" vertex="1">
          <mxGeometry x="810" y="230" width="75" height="50" as="geometry" />
        </mxCell>
        <mxCell id="MWNjnfaUYYlCfx7c9M3N-47" value="Teleop" style="ellipse;whiteSpace=wrap;html=1;" parent="1" vertex="1">
          <mxGeometry x="860" y="190" width="75" height="50" as="geometry" />
        </mxCell>
        <mxCell id="MWNjnfaUYYlCfx7c9M3N-48" value="Stage" style="ellipse;whiteSpace=wrap;html=1;" parent="1" vertex="1">
          <mxGeometry x="7.5" y="90" width="75" height="50" as="geometry" />
        </mxCell>
        <mxCell id="MWNjnfaUYYlCfx7c9M3N-50" value="Inverse Kinematics" style="ellipse;whiteSpace=wrap;html=1;" parent="1" vertex="1">
          <mxGeometry x="440" y="600" width="75" height="50" as="geometry" />
        </mxCell>
        <mxCell id="MWNjnfaUYYlCfx7c9M3N-51" value="State Estimation" style="ellipse;whiteSpace=wrap;html=1;" parent="1" vertex="1">
          <mxGeometry x="620" y="650" width="75" height="50" as="geometry" />
        </mxCell>
        <mxCell id="MWNjnfaUYYlCfx7c9M3N-52" value="GUI Packages" style="ellipse;whiteSpace=wrap;html=1;" parent="1" vertex="1">
          <mxGeometry x="940" y="199" width="75" height="50" as="geometry" />
        </mxCell>
        <mxCell id="MWNjnfaUYYlCfx7c9M3N-53" value="Web Interface" style="ellipse;whiteSpace=wrap;html=1;" parent="1" vertex="1">
          <mxGeometry x="885" y="240" width="75" height="50" as="geometry" />
        </mxCell>
        <mxCell id="MWNjnfaUYYlCfx7c9M3N-54" value="UGV" style="ellipse;whiteSpace=wrap;html=1;" parent="1" vertex="1">
          <mxGeometry x="65" y="389.5" width="75" height="50" as="geometry" />
        </mxCell>
        <mxCell id="MWNjnfaUYYlCfx7c9M3N-55" value="Clearpath" style="ellipse;whiteSpace=wrap;html=1;" parent="1" vertex="1">
          <mxGeometry y="358.5" width="75" height="50" as="geometry" />
        </mxCell>
        <mxCell id="MWNjnfaUYYlCfx7c9M3N-56" value="TurtleBot" style="ellipse;whiteSpace=wrap;html=1;" parent="1" vertex="1">
          <mxGeometry y="389.5" width="75" height="50" as="geometry" />
        </mxCell>
        <mxCell id="MWNjnfaUYYlCfx7c9M3N-57" value="UAV" style="ellipse;whiteSpace=wrap;html=1;" parent="1" vertex="1">
          <mxGeometry x="50" y="315" width="75" height="50" as="geometry" />
        </mxCell>
        <mxCell id="MWNjnfaUYYlCfx7c9M3N-58" value="Linux" style="ellipse;whiteSpace=wrap;html=1;" parent="1" vertex="1">
          <mxGeometry x="399.5" y="520" width="75" height="50" as="geometry" />
        </mxCell>
        <mxCell id="MWNjnfaUYYlCfx7c9M3N-59" value="Rapsberry pi" style="ellipse;whiteSpace=wrap;html=1;" parent="1" vertex="1">
          <mxGeometry x="345" y="466" width="75" height="50" as="geometry" />
        </mxCell>
        <mxCell id="MWNjnfaUYYlCfx7c9M3N-60" value="Jetson" style="ellipse;whiteSpace=wrap;html=1;" parent="1" vertex="1">
          <mxGeometry x="320" y="501" width="75" height="50" as="geometry" />
        </mxCell>
        <mxCell id="wjIrcY8TM1LImqf2KLqx-1" value="AMCL" style="ellipse;whiteSpace=wrap;html=1;" parent="1" vertex="1">
          <mxGeometry x="532" y="660" width="75" height="50" as="geometry" />
        </mxCell>
        <mxCell id="wjIrcY8TM1LImqf2KLqx-3" value="Keras" style="ellipse;whiteSpace=wrap;html=1;" parent="1" vertex="1">
          <mxGeometry x="820" y="466" width="75" height="50" as="geometry" />
        </mxCell>
        <mxCell id="wjIrcY8TM1LImqf2KLqx-4" value="TensorFLow" style="ellipse;whiteSpace=wrap;html=1;" parent="1" vertex="1">
          <mxGeometry x="829" y="501" width="75" height="50" as="geometry" />
        </mxCell>
        <mxCell id="wjIrcY8TM1LImqf2KLqx-6" value="Summit XL" style="ellipse;whiteSpace=wrap;html=1;" parent="1" vertex="1">
          <mxGeometry y="419.5" width="75" height="50" as="geometry" />
        </mxCell>
        <mxCell id="wjIrcY8TM1LImqf2KLqx-7" value="Parrot" style="ellipse;whiteSpace=wrap;html=1;" parent="1" vertex="1">
          <mxGeometry x="7.5" y="294" width="75" height="50" as="geometry" />
        </mxCell>
        <mxCell id="wjIrcY8TM1LImqf2KLqx-9" value="WAMV" style="ellipse;whiteSpace=wrap;html=1;" parent="1" vertex="1">
          <mxGeometry y="485" width="75" height="50" as="geometry" />
        </mxCell>
        <mxCell id="wjIrcY8TM1LImqf2KLqx-10" value="WAM" style="ellipse;whiteSpace=wrap;html=1;" parent="1" vertex="1">
          <mxGeometry y="570" width="75" height="50" as="geometry" />
        </mxCell>
        <mxCell id="-A-Ao3ZN_OpfrK-LmKao-1" value="Noise" style="ellipse;whiteSpace=wrap;html=1;" parent="1" vertex="1">
          <mxGeometry x="100" y="270" width="75" height="50" as="geometry" />
        </mxCell>
        <mxCell id="-A-Ao3ZN_OpfrK-LmKao-2" value="Lazer" style="ellipse;whiteSpace=wrap;html=1;" parent="1" vertex="1">
          <mxGeometry x="230" y="295" width="75" height="30" as="geometry" />
        </mxCell>
        <mxCell id="-A-Ao3ZN_OpfrK-LmKao-5" value="" style="endArrow=none;dashed=1;html=1;dashPattern=1 3;strokeWidth=2;rounded=0;entryX=0;entryY=0.5;entryDx=0;entryDy=0;" parent="1" target="MWNjnfaUYYlCfx7c9M3N-1" edge="1">
          <mxGeometry width="50" height="50" relative="1" as="geometry">
            <mxPoint x="230" y="460" as="sourcePoint" />
            <mxPoint x="521.2893218813454" y="540.7106781186546" as="targetPoint" />
          </mxGeometry>
        </mxCell>
        <mxCell id="-A-Ao3ZN_OpfrK-LmKao-8" value="Motors" style="ellipse;whiteSpace=wrap;html=1;" parent="1" vertex="1">
          <mxGeometry x="685" y="405" width="75" height="50" as="geometry" />
        </mxCell>
        <mxCell id="-A-Ao3ZN_OpfrK-LmKao-9" value="Open3D" style="ellipse;whiteSpace=wrap;html=1;" parent="1" vertex="1">
          <mxGeometry x="775" y="590" width="75" height="50" as="geometry" />
        </mxCell>
        <mxCell id="-A-Ao3ZN_OpfrK-LmKao-10" value="Wheels" style="ellipse;whiteSpace=wrap;html=1;" parent="1" vertex="1">
          <mxGeometry x="745" y="405" width="75" height="50" as="geometry" />
        </mxCell>
        <mxCell id="-A-Ao3ZN_OpfrK-LmKao-11" value="Thrusters" style="ellipse;whiteSpace=wrap;html=1;" parent="1" vertex="1">
          <mxGeometry x="805" y="405" width="75" height="50" as="geometry" />
        </mxCell>
        <mxCell id="-A-Ao3ZN_OpfrK-LmKao-12" value="AWS/&lt;br&gt;CLOUD" style="ellipse;whiteSpace=wrap;html=1;" parent="1" vertex="1">
          <mxGeometry x="90" y="90" width="75" height="50" as="geometry" />
        </mxCell>
        <mxCell id="-A-Ao3ZN_OpfrK-LmKao-13" value="SSH" style="ellipse;whiteSpace=wrap;html=1;" parent="1" vertex="1">
          <mxGeometry x="360" y="560" width="75" height="50" as="geometry" />
        </mxCell>
        <mxCell id="XWce2W0FbkmNpmK_RSVY-1" value="Hardware" style="text;html=1;strokeColor=none;fillColor=none;align=center;verticalAlign=middle;whiteSpace=wrap;rounded=0;" vertex="1" parent="1">
          <mxGeometry x="492" y="471" width="60" height="30" as="geometry" />
        </mxCell>
        <mxCell id="XWce2W0FbkmNpmK_RSVY-2" value="" style="endArrow=none;dashed=1;html=1;dashPattern=1 3;strokeWidth=2;rounded=0;" edge="1" parent="1">
          <mxGeometry width="50" height="50" relative="1" as="geometry">
            <mxPoint x="10" y="200" as="sourcePoint" />
            <mxPoint x="230" y="460" as="targetPoint" />
          </mxGeometry>
        </mxCell>
        <mxCell id="XWce2W0FbkmNpmK_RSVY-3" value="" style="endArrow=none;dashed=1;html=1;dashPattern=1 3;strokeWidth=2;rounded=0;" edge="1" parent="1">
          <mxGeometry width="50" height="50" relative="1" as="geometry">
            <mxPoint x="10" y="720" as="sourcePoint" />
            <mxPoint x="230" y="460" as="targetPoint" />
          </mxGeometry>
        </mxCell>
        <mxCell id="XWce2W0FbkmNpmK_RSVY-4" value="Physical Robots" style="ellipse;whiteSpace=wrap;html=1;" vertex="1" parent="1">
          <mxGeometry x="215" y="468" width="75" height="50" as="geometry" />
        </mxCell>
        <mxCell id="8nOgykVeysTYnGqNDxdl-3" style="edgeStyle=none;rounded=0;orthogonalLoop=1;jettySize=auto;html=1;entryX=0;entryY=1;entryDx=0;entryDy=0;" edge="1" parent="1" source="XWce2W0FbkmNpmK_RSVY-5" target="MWNjnfaUYYlCfx7c9M3N-24">
          <mxGeometry relative="1" as="geometry" />
        </mxCell>
        <mxCell id="XWce2W0FbkmNpmK_RSVY-5" value="worlds" style="ellipse;whiteSpace=wrap;html=1;" vertex="1" parent="1">
          <mxGeometry x="370" y="408.5" width="75" height="50" as="geometry" />
        </mxCell>
        <mxCell id="8nOgykVeysTYnGqNDxdl-4" style="edgeStyle=none;rounded=0;orthogonalLoop=1;jettySize=auto;html=1;" edge="1" parent="1" source="XWce2W0FbkmNpmK_RSVY-6" target="MWNjnfaUYYlCfx7c9M3N-24">
          <mxGeometry relative="1" as="geometry" />
        </mxCell>
        <mxCell id="XWce2W0FbkmNpmK_RSVY-6" value="models" style="ellipse;whiteSpace=wrap;html=1;" vertex="1" parent="1">
          <mxGeometry x="375" y="315" width="75" height="50" as="geometry" />
        </mxCell>
        <mxCell id="8nOgykVeysTYnGqNDxdl-2" style="rounded=0;orthogonalLoop=1;jettySize=auto;html=1;startArrow=classic;startFill=1;" edge="1" parent="1" source="XWce2W0FbkmNpmK_RSVY-8" target="XWce2W0FbkmNpmK_RSVY-6">
          <mxGeometry relative="1" as="geometry" />
        </mxCell>
        <mxCell id="XWce2W0FbkmNpmK_RSVY-8" value="joint" style="ellipse;whiteSpace=wrap;html=1;" vertex="1" parent="1">
          <mxGeometry x="295" y="220" width="75" height="50" as="geometry" />
        </mxCell>
        <mxCell id="8nOgykVeysTYnGqNDxdl-7" style="edgeStyle=none;rounded=0;orthogonalLoop=1;jettySize=auto;html=1;entryX=0.016;entryY=0.447;entryDx=0;entryDy=0;entryPerimeter=0;" edge="1" parent="1" source="XWce2W0FbkmNpmK_RSVY-9" target="XWce2W0FbkmNpmK_RSVY-6">
          <mxGeometry relative="1" as="geometry" />
        </mxCell>
        <mxCell id="XWce2W0FbkmNpmK_RSVY-9" value="Sensor" style="ellipse;whiteSpace=wrap;html=1;" vertex="1" parent="1">
          <mxGeometry x="290" y="306" width="75" height="50" as="geometry" />
        </mxCell>
        <mxCell id="8nOgykVeysTYnGqNDxdl-5" style="edgeStyle=none;rounded=0;orthogonalLoop=1;jettySize=auto;html=1;entryX=0;entryY=1;entryDx=0;entryDy=0;exitX=0.729;exitY=0.079;exitDx=0;exitDy=0;exitPerimeter=0;" edge="1" parent="1" source="8nOgykVeysTYnGqNDxdl-10" target="XWce2W0FbkmNpmK_RSVY-6">
          <mxGeometry relative="1" as="geometry">
            <mxPoint x="364.6551724138003" y="371.75862068965057" as="sourcePoint" />
          </mxGeometry>
        </mxCell>
        <mxCell id="XWce2W0FbkmNpmK_RSVY-11" value="camera" style="ellipse;whiteSpace=wrap;html=1;" vertex="1" parent="1">
          <mxGeometry x="220" y="315" width="75" height="30" as="geometry" />
        </mxCell>
        <mxCell id="XWce2W0FbkmNpmK_RSVY-12" value="odometer" style="ellipse;whiteSpace=wrap;html=1;" vertex="1" parent="1">
          <mxGeometry x="230" y="335" width="75" height="30" as="geometry" />
        </mxCell>
        <mxCell id="XWce2W0FbkmNpmK_RSVY-13" value="Ball + Socket" style="ellipse;whiteSpace=wrap;html=1;" vertex="1" parent="1">
          <mxGeometry x="235" y="208" width="75" height="30" as="geometry" />
        </mxCell>
        <mxCell id="XWce2W0FbkmNpmK_RSVY-14" value="2 axis hinge" style="ellipse;whiteSpace=wrap;html=1;" vertex="1" parent="1">
          <mxGeometry x="225" y="228" width="75" height="30" as="geometry" />
        </mxCell>
        <mxCell id="XWce2W0FbkmNpmK_RSVY-15" value="Universal" style="ellipse;whiteSpace=wrap;html=1;" vertex="1" parent="1">
          <mxGeometry x="235" y="248" width="75" height="30" as="geometry" />
        </mxCell>
        <mxCell id="XWce2W0FbkmNpmK_RSVY-17" value="Slider" style="ellipse;whiteSpace=wrap;html=1;" vertex="1" parent="1">
          <mxGeometry x="260" y="266" width="75" height="30" as="geometry" />
        </mxCell>
        <mxCell id="8nOgykVeysTYnGqNDxdl-8" value="VPN" style="ellipse;whiteSpace=wrap;html=1;" vertex="1" parent="1">
          <mxGeometry x="305" y="578" width="75" height="50" as="geometry" />
        </mxCell>
        <mxCell id="8nOgykVeysTYnGqNDxdl-9" value="box" style="ellipse;whiteSpace=wrap;html=1;" vertex="1" parent="1">
          <mxGeometry x="255" y="366.5" width="75" height="30" as="geometry" />
        </mxCell>
        <mxCell id="8nOgykVeysTYnGqNDxdl-10" value="body" style="ellipse;whiteSpace=wrap;html=1;" vertex="1" parent="1">
          <mxGeometry x="305" y="379.5" width="75" height="50" as="geometry" />
        </mxCell>
        <mxCell id="8nOgykVeysTYnGqNDxdl-11" value="plane" style="ellipse;whiteSpace=wrap;html=1;" vertex="1" parent="1">
          <mxGeometry x="245" y="384.5" width="75" height="30" as="geometry" />
        </mxCell>
        <mxCell id="8nOgykVeysTYnGqNDxdl-12" value="cylinder" style="ellipse;whiteSpace=wrap;html=1;" vertex="1" parent="1">
          <mxGeometry x="235" y="404.5" width="75" height="30" as="geometry" />
        </mxCell>
        <mxCell id="8nOgykVeysTYnGqNDxdl-13" value="sphere" style="ellipse;whiteSpace=wrap;html=1;" vertex="1" parent="1">
          <mxGeometry x="245" y="424.5" width="75" height="30" as="geometry" />
        </mxCell>
        <mxCell id="8nOgykVeysTYnGqNDxdl-14" value="ray" style="ellipse;whiteSpace=wrap;html=1;" vertex="1" parent="1">
          <mxGeometry x="310" y="428.5" width="60" height="30" as="geometry" />
        </mxCell>
      </root>
    </mxGraphModel>
  </diagram>
</mxfile>
